<svg width="25" height="21" viewBox="0 0 25 21" fill="none" xmlns="http://www.w3.org/2000/svg">
<path d="M10.5938 4.21879C10.7495 4.21836 10.9032 4.24618 11.0438 4.30021C11.1844 4.35423 11.3083 4.43309 11.4063 4.53098L16.4376 9.59348C16.5908 9.74445 16.6746 9.93383 16.6746 10.1293C16.6746 10.3247 16.5908 10.5141 16.4376 10.665L11.2293 15.7275C11.0524 15.8998 10.7984 16.0082 10.5229 16.0288C10.2475 16.0493 9.97324 15.9804 9.76051 15.8372C9.54779 15.694 9.41401 15.4882 9.38861 15.2651C9.36322 15.042 9.44828 14.8199 9.62509 14.6475L14.2813 10.125L9.78134 5.60254C9.65397 5.47869 9.57305 5.32788 9.54818 5.16795C9.5233 5.00802 9.55551 4.84566 9.64098 4.70009C9.72646 4.55452 9.86163 4.43183 10.0305 4.34653C10.1994 4.26124 10.3949 4.21691 10.5938 4.21879V4.21879Z" fill="#A2130B"/>
</svg>
