<svg width="24" height="24" viewBox="0 0 24 24" fill="none" xmlns="http://www.w3.org/2000/svg">
<path opacity="0.4" d="M13 3.25H7C3.58 3.25 2.25 4.58 2.25 8V16C2.25 18.3 3.5 20.75 7 20.75H13C16.42 20.75 17.75 19.42 17.75 16V8C17.75 4.58 16.42 3.25 13 3.25Z" fill="#9D6B53"/>
<path d="M11.501 11.3809C11.7479 11.3809 11.9923 11.3323 12.2204 11.2378C12.4485 11.1434 12.6558 11.0049 12.8303 10.8303C13.0049 10.6557 13.1434 10.4485 13.2379 10.2204C13.3323 9.99229 13.381 9.74783 13.381 9.50094C13.381 9.25406 13.3323 9.00959 13.2379 8.7815C13.1434 8.5534 13.0049 8.34615 12.8303 8.17158C12.6558 7.99701 12.4485 7.85853 12.2204 7.76405C11.9923 7.66957 11.7479 7.62094 11.501 7.62094C11.0024 7.62094 10.5242 7.81901 10.1716 8.17158C9.81904 8.52415 9.62097 9.00233 9.62097 9.50094C9.62097 9.99955 9.81904 10.4777 10.1716 10.8303C10.5242 11.1829 11.0024 11.3809 11.501 11.3809ZM21.65 6.17194C21.24 5.96194 20.38 5.72194 19.21 6.54194L17.73 7.58194C17.74 7.72194 17.75 7.85194 17.75 8.00194V16.0019C17.75 16.1519 17.73 16.2819 17.73 16.4219L19.21 17.4619C19.83 17.9019 20.37 18.0419 20.8 18.0419C21.17 18.0419 21.46 17.9419 21.65 17.8419C22.06 17.6319 22.75 17.0619 22.75 15.6319V8.38194C22.75 6.95194 22.06 6.38194 21.65 6.17194V6.17194Z" fill="#9D6B53"/>
</svg>
