<svg width="70" height="70" viewBox="0 0 70 70" fill="none" xmlns="http://www.w3.org/2000/svg">
<path d="M34.9967 5.83313C29.2281 5.83313 23.5891 7.54372 18.7926 10.7486C13.9962 13.9535 10.2578 18.5087 8.05027 23.8382C5.84272 29.1677 5.26512 35.0321 6.39052 40.6899C7.51592 46.3477 10.2938 51.5447 14.3728 55.6237C18.4518 59.7028 23.6488 62.4806 29.3066 63.606C34.9644 64.7314 40.8288 64.1538 46.1583 61.9463C51.4879 59.7387 56.0431 56.0003 59.2479 51.2039C62.4528 46.4075 64.1634 40.7684 64.1634 34.9998C64.1634 31.1696 63.409 27.3768 61.9432 23.8382C60.4775 20.2995 58.3291 17.0842 55.6207 14.3758C52.9123 11.6675 49.697 9.51907 46.1583 8.05331C42.6197 6.58755 38.827 5.83313 34.9967 5.83313ZM37.9134 46.6664C37.9134 47.44 37.6061 48.1819 37.0591 48.7288C36.5122 49.2758 35.7703 49.5831 34.9967 49.5831C34.2232 49.5831 33.4813 49.2758 32.9344 48.7288C32.3874 48.1819 32.0801 47.44 32.0801 46.6664V32.0831C32.0801 31.3096 32.3874 30.5677 32.9344 30.0207C33.4813 29.4737 34.2232 29.1665 34.9967 29.1665C35.7703 29.1665 36.5122 29.4737 37.0591 30.0207C37.6061 30.5677 37.9134 31.3096 37.9134 32.0831V46.6664ZM34.9967 26.2498C34.4199 26.2498 33.856 26.0787 33.3763 25.7582C32.8967 25.4378 32.5229 24.9822 32.3021 24.4493C32.0813 23.9163 32.0236 23.3299 32.1361 22.7641C32.2487 22.1983 32.5264 21.6786 32.9344 21.2707C33.3423 20.8628 33.862 20.585 34.4277 20.4725C34.9935 20.36 35.58 20.4177 36.1129 20.6385C36.6459 20.8592 37.1014 21.2331 37.4219 21.7127C37.7424 22.1924 37.9134 22.7563 37.9134 23.3331C37.9134 24.1067 37.6061 24.8485 37.0591 25.3955C36.5122 25.9425 35.7703 26.2498 34.9967 26.2498Z" fill="white"/>
</svg>
