<svg width="24" height="24" viewBox="0 0 24 24" fill="none" xmlns="http://www.w3.org/2000/svg">
<path opacity="0.4" d="M16.19 2H7.81C4.17 2 2 4.17 2 7.81V16.18C2 19.83 4.17 22 7.81 22H16.18C19.82 22 21.99 19.83 21.99 16.19V7.81C22 4.17 19.83 2 16.19 2Z" fill="#9D6B53"/>
<path d="M12 15.881C12.5095 15.881 13.0141 15.7807 13.4848 15.5857C13.9556 15.3907 14.3833 15.1049 14.7436 14.7446C15.1039 14.3843 15.3897 13.9566 15.5846 13.4858C15.7796 13.0151 15.88 12.5106 15.88 12.001C15.88 11.4915 15.7796 10.987 15.5846 10.5162C15.3897 10.0455 15.1039 9.61774 14.7436 9.25745C14.3833 8.89716 13.9556 8.61136 13.4848 8.41637C13.0141 8.22139 12.5095 8.12103 12 8.12103C10.971 8.12103 9.98406 8.52981 9.25642 9.25745C8.52878 9.98509 8.12 10.972 8.12 12.001C8.12 13.0301 8.52878 14.017 9.25642 14.7446C9.98406 15.4722 10.971 15.881 12 15.881ZM17 7.50003C16.8683 7.50134 16.7377 7.47637 16.6158 7.42657C16.4939 7.37678 16.3831 7.30316 16.29 7.21003C16.2 7.11003 16.13 7.00003 16.08 6.88003C16.0286 6.75984 16.0014 6.63072 16 6.50003C16 6.37003 16.03 6.24003 16.08 6.12003C16.13 5.99003 16.2 5.89003 16.29 5.79003C16.52 5.56003 16.87 5.45003 17.19 5.52003C17.26 5.53003 17.32 5.55003 17.38 5.58003C17.44 5.60003 17.5 5.63003 17.56 5.67003C17.61 5.70003 17.66 5.75003 17.71 5.79003C17.8 5.89003 17.87 5.99003 17.92 6.12003C17.97 6.24003 18 6.37003 18 6.50003C18 6.63003 17.97 6.76003 17.92 6.88003C17.87 7.00003 17.8 7.11003 17.71 7.21003C17.61 7.30003 17.5 7.37003 17.38 7.42003C17.26 7.47003 17.13 7.50003 17 7.50003Z" fill="#9D6B53"/>
</svg>
