<svg width="24" height="24" viewBox="0 0 24 24" fill="none" xmlns="http://www.w3.org/2000/svg">
<path opacity="0.4" d="M20.621 8.45C19.571 3.83 15.541 1.75 12.001 1.75H11.991C8.46101 1.75 4.42101 3.82 3.37101 8.44C2.20101 13.6 5.36101 17.97 8.22101 20.72C9.23473 21.7012 10.5902 22.2498 12.001 22.25C13.361 22.25 14.721 21.74 15.771 20.72C18.631 17.97 21.791 13.61 20.621 8.45Z" fill="#9D6B53"/>
<path d="M12.002 13.46C12.4157 13.46 12.8253 13.3786 13.2074 13.2203C13.5896 13.062 13.9369 12.8299 14.2294 12.5374C14.5219 12.2449 14.7539 11.8977 14.9122 11.5155C15.0705 11.1333 15.152 10.7237 15.152 10.31C15.152 9.89637 15.0705 9.48676 14.9122 9.10458C14.7539 8.72241 14.5219 8.37515 14.2294 8.08265C13.9369 7.79014 13.5896 7.55812 13.2074 7.39981C12.8253 7.24151 12.4157 7.16003 12.002 7.16003C11.1666 7.16003 10.3653 7.49191 9.7746 8.08265C9.18386 8.67339 8.85199 9.4746 8.85199 10.31C8.85199 11.1455 9.18386 11.9467 9.7746 12.5374C10.3653 13.1282 11.1666 13.46 12.002 13.46Z" fill="#9D6B53"/>
</svg>
