<svg width="24" height="24" viewBox="0 0 24 24" fill="none" xmlns="http://www.w3.org/2000/svg">
<path opacity="0.4" d="M21.99 6.01996C22.01 6.25996 21.99 6.50996 21.93 6.75996L18.56 20.29C18.4432 20.7793 18.1642 21.2147 17.7683 21.5252C17.3724 21.8358 16.8831 22.0031 16.38 22H3.24C1.73 22 0.659999 20.52 1.1 19.07L5.31 5.53996C5.6 4.59996 6.47 3.95996 7.45 3.95996H19.75C20.71 3.95996 21.49 4.52996 21.82 5.32996C21.9174 5.54797 21.975 5.78166 21.99 6.01996Z" fill="#9D6B53"/>
<path d="M22.99 19.62C23.0135 19.9242 22.9737 20.2299 22.8732 20.518C22.7727 20.8061 22.6136 21.0702 22.406 21.2938C22.1984 21.5174 21.9468 21.6955 21.6669 21.8171C21.3871 21.9386 21.0851 22.0009 20.78 22H16.38C17.42 22 18.32 21.3 18.56 20.29L21.93 6.75998C21.99 6.50998 22.01 6.25998 21.99 6.01998L22 5.99998L22.99 19.62ZM9.68001 7.13098C9.62001 7.13098 9.56001 7.12098 9.50001 7.11098C9.40402 7.08757 9.3136 7.04541 9.23395 6.98695C9.1543 6.92848 9.08699 6.85485 9.03588 6.77029C8.98477 6.68573 8.95088 6.59191 8.93614 6.49421C8.9214 6.3965 8.92612 6.29686 8.95001 6.20098L9.99001 1.88098C10.09 1.48098 10.49 1.24098 10.9 1.33098C11.3 1.43098 11.55 1.83098 11.45 2.24098L10.41 6.56098C10.33 6.90098 10.02 7.13098 9.68001 7.13098ZM16.38 7.14198C16.33 7.14198 16.27 7.14198 16.22 7.12198C16.0269 7.07763 15.8585 6.96007 15.7503 6.79407C15.6422 6.62807 15.6026 6.42656 15.64 6.23198L16.58 1.89198C16.67 1.48198 17.07 1.23198 17.47 1.31198C17.87 1.40198 18.13 1.80198 18.05 2.20198L17.11 6.54198C17.04 6.90198 16.73 7.14198 16.38 7.14198ZM15.7 12.75H7.70001C7.29001 12.75 6.95001 12.41 6.95001 12C6.95001 11.59 7.29001 11.25 7.70001 11.25H15.7C16.11 11.25 16.45 11.59 16.45 12C16.45 12.41 16.11 12.75 15.7 12.75ZM14.7 16.75H6.70001C6.29001 16.75 5.95001 16.41 5.95001 16C5.95001 15.59 6.29001 15.25 6.70001 15.25H14.7C15.11 15.25 15.45 15.59 15.45 16C15.45 16.41 15.11 16.75 14.7 16.75Z" fill="#9D6B53"/>
</svg>
