<svg width="70" height="71" viewBox="0 0 70 71" fill="none" xmlns="http://www.w3.org/2000/svg">
<path d="M61.2503 23.3783C62.7974 23.3783 64.2811 23.994 65.3751 25.0899C66.4691 26.1858 67.0836 27.6722 67.0836 29.2221V40.9097C67.0836 42.4596 66.4691 43.946 65.3751 45.0419C64.2811 46.1378 62.7974 46.7535 61.2503 46.7535H58.1528C57.4418 52.4025 54.6973 57.5973 50.4346 61.3631C46.1718 65.1289 40.6838 67.2068 35.0003 67.2069V61.3631C39.6416 61.3631 44.0928 59.516 47.3747 56.2282C50.6566 52.9404 52.5003 48.4812 52.5003 43.8316V26.3002C52.5003 21.6506 50.6566 17.1914 47.3747 13.9036C44.0928 10.6158 39.6416 8.76874 35.0003 8.76874C30.359 8.76874 25.9078 10.6158 22.626 13.9036C19.3441 17.1914 17.5003 21.6506 17.5003 26.3002V46.7535H8.75032C7.20323 46.7535 5.7195 46.1378 4.62554 45.0419C3.53157 43.946 2.91699 42.4596 2.91699 40.9097V29.2221C2.91699 27.6722 3.53157 26.1858 4.62554 25.0899C5.7195 23.994 7.20323 23.3783 8.75032 23.3783H11.8478C12.5596 17.7299 15.3043 12.5359 19.567 8.77071C23.8297 5.00555 29.3173 2.92807 35.0003 2.92807C40.6833 2.92807 46.1709 5.00555 50.4336 8.77071C54.6963 12.5359 57.4411 17.7299 58.1528 23.3783H61.2503ZM22.6337 46.1253L25.7253 41.1698C28.5051 42.9142 31.7201 43.8369 35.0003 43.8316C38.2805 43.8369 41.4955 42.9142 44.2753 41.1698L47.367 46.1253C43.6607 48.4516 39.374 49.6822 35.0003 49.6754C30.6267 49.6822 26.34 48.4516 22.6337 46.1253Z" fill="white"/>
</svg>
