<svg width="24" height="24" viewBox="0 0 24 24" fill="none" xmlns="http://www.w3.org/2000/svg">
<path d="M22 19V22H2V19C2 18.45 2.45 18 3 18H21C21.55 18 22 18.45 22 19Z" fill="#9D6B53" stroke="#9D6B53" stroke-width="1.5" stroke-miterlimit="10" stroke-linecap="round" stroke-linejoin="round"/>
<path opacity="0.6" d="M8 11H4V18H8V11Z" fill="#9D6B53"/>
<path opacity="0.4" d="M12 11H8V18H12V11Z" fill="#9D6B53"/>
<path opacity="0.6" d="M16 11H12V18H16V11Z" fill="#9D6B53"/>
<path opacity="0.4" d="M20 11H16V18H20V11Z" fill="#9D6B53"/>
<path d="M23 22.75H1C0.59 22.75 0.25 22.41 0.25 22C0.25 21.59 0.59 21.25 1 21.25H23C23.41 21.25 23.75 21.59 23.75 22C23.75 22.41 23.41 22.75 23 22.75ZM21.37 5.74997L12.37 2.14997C12.17 2.06997 11.83 2.06997 11.63 2.14997L2.63 5.74997C2.28 5.88997 2 6.29997 2 6.67997V9.99997C2 10.55 2.45 11 3 11H21C21.55 11 22 10.55 22 9.99997V6.67997C22 6.29997 21.72 5.88997 21.37 5.74997ZM12 8.49997C11.17 8.49997 10.5 7.82997 10.5 6.99997C10.5 6.16997 11.17 5.49997 12 5.49997C12.83 5.49997 13.5 6.16997 13.5 6.99997C13.5 7.82997 12.83 8.49997 12 8.49997Z" fill="#9D6B53"/>
</svg>
