<svg width="70" height="70" viewBox="0 0 70 70" fill="none" xmlns="http://www.w3.org/2000/svg">
<path d="M54.361 45.903C52.7038 50.3554 52.803 55.6756 56.1628 59.0346L60.6878 63.5586C61.8276 64.6981 61.8277 66.5458 60.6881 67.6855C59.5484 68.8251 57.7007 68.825 56.5612 67.6852L52.0372 63.1602C48.6782 59.8004 43.358 59.7012 38.9056 61.3584C35.9978 62.4407 32.8996 63.0043 29.7524 62.9998C15.2624 62.9998 3.50244 51.2398 3.50244 36.7498C3.50244 22.2598 15.2624 10.4998 29.7524 10.4998C44.2424 10.4998 56.0024 22.2598 56.0024 36.7498C56.0069 39.897 55.4433 42.9952 54.361 45.903ZM44.4087 50.9686C48.1103 47.162 50.1775 42.0594 50.1691 36.7498C50.1691 25.4682 41.0312 16.3332 29.7524 16.3332C18.4708 16.3332 9.33577 25.4682 9.33577 36.7498C9.33577 48.0286 18.4708 57.1665 29.7524 57.1665C35.062 57.1749 40.1646 55.1077 43.9712 51.4061L44.4087 50.9686Z" fill="white"/>
</svg>
