<svg width="20" height="20" viewBox="0 0 20 20" fill="none" xmlns="http://www.w3.org/2000/svg">
<path d="M17.4372 12.1382C16.869 13.6648 16.9031 15.4888 18.055 16.6405L19.6064 18.1916C19.9972 18.5823 19.9972 19.2158 19.6065 19.6065C19.2158 19.9972 18.5823 19.9972 18.1916 19.6064L16.6405 18.055C15.4888 16.9031 13.6648 16.869 12.1382 17.4372C11.1413 17.8083 10.079 18.0015 9 18C4.032 18 0 13.968 0 9C0 4.032 4.032 0 9 0C13.968 0 18 4.032 18 9C18.0015 10.079 17.8083 11.1413 17.4372 12.1382ZM14.025 13.875C15.2941 12.5699 16.0029 10.8204 16 9C16 5.132 12.867 2 9 2C5.132 2 2 5.132 2 9C2 12.867 5.132 16 9 16C10.8204 16.0029 12.5699 15.2941 13.875 14.025L14.025 13.875Z" fill="#9D6B53"/>
</svg>
