<svg width="17" height="17" viewBox="0 0 17 17" fill="none" xmlns="http://www.w3.org/2000/svg">
<path d="M14.531 10.1152C14.0575 11.3873 14.0859 12.9074 15.0458 13.8671L16.3387 15.1597C16.6643 15.4852 16.6644 16.0131 16.3388 16.3388C16.0131 16.6644 15.4852 16.6643 15.1597 16.3387L13.8671 15.0458C12.9074 14.0859 11.3873 14.0575 10.1152 14.531C9.28438 14.8402 8.3992 15.0013 7.5 15C3.36 15 0 11.64 0 7.5C0 3.36 3.36 0 7.5 0C11.64 0 15 3.36 15 7.5C15.0013 8.3992 14.8402 9.28438 14.531 10.1152ZM11.6875 11.5625C12.7451 10.4749 13.3357 9.01703 13.3333 7.5C13.3333 4.27667 10.7225 1.66667 7.5 1.66667C4.27667 1.66667 1.66667 4.27667 1.66667 7.5C1.66667 10.7225 4.27667 13.3333 7.5 13.3333C9.01703 13.3357 10.4749 12.7451 11.5625 11.6875L11.6875 11.5625Z" fill="#333333" fill-opacity="0.5"/>
</svg>
